<svg xmlns="http://www.w3.org/2000/svg" style="display: none;">
    <!-- Play -->
    <symbol
        id="icon-play"
        viewBox="0 0 24 24"
        fill="none"
        stroke="currentColor"
        stroke-width="2"
        stroke-linecap="round"
        stroke-linejoin="round"
    >
        <path stroke="none" d="M0 0h24v24H0z" fill="none" />
        <path d="M7 4v16l13 -8l-13 -8" />
    </symbol>

    <!-- Pause -->
    <symbol
        id="icon-pause"
        viewBox="0 0 24 24"
        fill="none"
        stroke="currentColor"
        stroke-width="2"
        stroke-linecap="round"
        stroke-linejoin="round"
    >
        <path stroke="none" d="M0 0h24v24H0z" fill="none" />
        <path d="M6 6a1 1 0 0 1 1 -1h2a1 1 0 0 1 1 1v12a1 1 0 0 1 -1 1h-2a1 1 0 0 1 -1 -1l0 -12" />
        <path d="M14 6a1 1 0 0 1 1 -1h2a1 1 0 0 1 1 1v12a1 1 0 0 1 -1 1h-2a1 1 0 0 1 -1 -1l0 -12" />
    </symbol>

    <!-- Next -->
    <symbol
        id="icon-next"
        viewBox="0 0 24 24"
        fill="none"
        stroke="currentColor"
        stroke-width="2"
        stroke-linecap="round"
        stroke-linejoin="round"
    >
        <path stroke="none" d="M0 0h24v24H0z" fill="none" />
        <path d="M3 5v14l8 -7l-8 -7" />
        <path d="M14 5v14l8 -7l-8 -7" />
    </symbol>

    <!-- Prev -->
    <symbol
        id="icon-prev"
        viewBox="0 0 24 24"
        fill="none"
        stroke="currentColor"
        stroke-width="2"
        stroke-linecap="round"
        stroke-linejoin="round"
    >
        <path stroke="none" d="M0 0h24v24H0z" fill="none" />
        <path d="M21 5v14l-8 -7l8 -7" />
        <path d="M10 5v14l-8 -7l8 -7" />
    </symbol>

    <!-- Shuffle -->
    <symbol
        id="icon-shuffle"
        viewBox="0 0 24 24"
        fill="none"
        stroke="currentColor"
        stroke-width="2"
        stroke-linecap="round"
        stroke-linejoin="round"
    >
        <path stroke="none" d="M0 0h24v24H0z" fill="none" />
        <path d="M18 4l3 3l-3 3" />
        <path d="M18 20l3 -3l-3 -3" />
        <path d="M3 7h3a5 5 0 0 1 5 5a5 5 0 0 0 5 5h5" />
        <path d="M21 7h-5a4.978 4.978 0 0 0 -3 1m-4 8a4.984 4.984 0 0 1 -3 1h-3" />
    </symbol>

    <!-- +5 -->
    <symbol
        id="icon-plus-5"
        viewBox="0 0 24 24"
        fill="none"
        stroke="currentColor"
        stroke-width="2"
        stroke-linecap="round"
        stroke-linejoin="round"
    >
        <path stroke="none" d="M0 0h24v24H0z" fill="none" />
        <path d="M9 18a6 6 0 1 1 0 -12h11" />
        <path d="M13 20h2a1 1 0 0 0 1 -1v-1a1 1 0 0 0 -1 -1h-2v-3h3" />
        <path d="M17 9l3 -3l-3 -3" />
    </symbol>

    <!-- -5 -->
    <symbol
        id="icon-minus-5"
        viewBox="0 0 24 24"
        fill="none"
        stroke="currentColor"
        stroke-width="2"
        stroke-linecap="round"
        stroke-linejoin="round"
    >
        <path stroke="none" d="M0 0h24v24H0z" fill="none" />
        <path d="M15 18a6 6 0 1 0 0 -12h-11" />
        <path d="M7 9l-3 -3l3 -3" />
        <path d="M8 20h2a1 1 0 0 0 1 -1v-1a1 1 0 0 0 -1 -1h-2v-3h3" />
    </symbol>
</svg>